Patient4_TMGait_0pt6_02_right_14_EMG.mot
version=1
nRows=20
nColumns=33
inDegrees=no
endheader
time	1LAddLong	2LGlutMax	3LGlutMed	4LIliopsoas	5LSemiMemb	6LBicFemLong	7LRecFem	8LVastMed	9LVastLat	10LGasMed	11LTibAnt	12lTibPost	13LPeroneusLong	14LSol	15LExtDigLong	16LFlexDigLong	17RAddLong	18RGlutMax	19RGlutMed	20RIliopsoas	21RSemiMemb	22RBicFemLong	23RRecFem	24RVastMed	25RVastLat	26RGasMed	27RTibAnt	28RTibPost	29RPeroneusLong	30RSol	31RExtDigLong	32RFlexDigLong
17.045	-0.006409	-0.51605	0.037384	0.028839	-0.001678	-0.002289	-0.4686	0.017242	0.071869	-0.11139	0.023041	-0.001526	-0.036774	0.2652	0.48798	0.020447	0.072327	-0.31952	-0.22964	0.19226	-0.082703	0.093079	-0.10513	-0.32028	-0.26901	-0.043335	0.42801	-0.021057	-0.32455	0.001678	0.00061	-0.015869
17.046	0	-0.49759	0.026855	0.064392	-0.001831	-0.012817	-0.53421	0.001526	0.089722	-0.071564	0.10315	0.001831	-0.076447	0.24078	0.38498	0.028229	0.053101	-0.39063	0.089264	0.14465	0.048828	0.15732	-0.057983	-0.39017	-0.20096	-0.038452	0.16922	-0.016174	0.13046	0.002899	-0.000916	-0.019226
17.047	0.002136	-0.45578	0.026398	0.040131	-0.002289	-0.016785	-0.42435	-0.003967	0.084534	-0.048523	0.18158	-0.005035	-0.0914	0.11856	-0.1181	0.02533	0.035858	-0.45731	-0.55405	0.060577	0.19775	0.2002	-0.052032	-0.37933	-0.20111	-0.013123	-0.057373	-0.014038	1.2628	-0.007782	-0.005493	-0.013733
17.048	0.010376	-0.35202	0.057068	-0.03006	0.002136	-0.018311	-0.17532	-0.025024	0.083771	-0.044098	0.27496	-0.002899	-0.097961	0.11047	-0.20752	0.015259	0.046692	-0.39597	-0.1387	-0.070648	0.14206	0.20172	-0.03006	-0.40726	-0.25238	-0.000916	-0.12802	-0.022278	1.7949	-0.026245	-0.001678	-0.011292
17.049	0.007935	-0.28534	0.039368	-0.069733	0.002747	-0.019989	-0.048981	-0.014801	0.095062	-0.050812	0.049591	-0.00351	-0.077972	0.049133	-0.34149	-0.000916	0.052948	-0.49683	0.69488	-0.11078	-0.17578	0.24384	-0.061188	-0.22369	-0.24765	0.000153	0.047455	-0.0177	1.6728	-0.25803	-0.002289	-0.009308
17.05	0.014038	-0.19272	0.028076	-0.078888	0.006409	-0.018005	-0.000763	0.014343	0.088196	-0.028992	-0.11139	-0.001068	-0.072021	-0.015869	-0.4451	-0.009155	0.07843	-0.47867	-0.20599	-0.00824	-0.51361	-0.025024	0.076447	-0.046539	-0.15762	-0.003662	0.58075	0.021973	-0.51117	-0.39398	-0.00473	-0.009918
17.051	0.012817	-0.1207	0.028381	-0.051117	-0.002136	-0.027771	0.090027	0.03891	0.088806	-0.010529	0.009003	-0.007782	-0.11002	0.031128	-0.5658	-0.010529	0.014954	-0.54672	-0.44479	0.087891	-0.3833	-0.26367	0.19775	0.049438	-0.18051	-0.00824	0.51071	0.011597	-1.3249	-0.36499	-0.000305	-0.006104
17.052	0.005035	0.006866	0.006104	-0.03418	0.012512	-0.032501	0.16571	0.009308	0.082245	-0.00885	0.067749	0.010529	-0.10513	-0.001831	-0.13031	-0.005798	-0.054932	-0.68192	-0.14206	0.068817	-0.15503	-0.27283	0.2002	0.30624	-0.1976	-0.00885	-0.13123	0.00061	-1.3785	-0.41992	-0.002594	-0.007172
17.053	0.002594	0.071106	-0.011749	-0.016632	0.014496	-0.026703	0.16586	-0.001068	0.068665	0.005798	0.032806	0.011444	-0.06134	-0.013428	0.005341	-0.009613	-0.087433	-0.77835	0.076599	-0.031891	-0.35889	-0.35782	0.28946	0.29083	-0.079803	0.005035	-0.41336	-0.002899	-0.7756	-0.45548	-0.002441	-0.000153
17.054	0	0.14526	-0.030975	-0.005035	0.006104	-0.018768	0.14587	0.001831	0.049896	0.005493	0.071564	0.002594	-0.074005	0.051575	0.29602	0.009308	-0.049744	-0.91141	0.55008	-0.14313	-0.2359	-0.64316	0.37918	0.15717	-0.055695	0.00473	-0.70511	-0.005188	1.6884	-0.33417	-0.001373	-0.007629
17.055	-0.00061	0.20752	0.004425	0.01236	0.007935	-0.024414	0.077057	0.00351	0.037079	0.020752	0.011139	0.006866	-0.11856	0.083771	0.36362	-0.001373	-0.011292	-1.1191	0.23025	-0.12116	0.33554	-0.89813	0.45914	-0.10651	-0.085297	0.014038	-1.624	-0.005951	2.3351	-0.23361	-0.001526	0.001984
17.056	-0.002747	0.22598	0.074768	0.028381	0.005798	-0.018768	0.12131	0.004578	0.053101	0.048065	0.004272	0.00885	-0.16174	0.014801	0.21759	-0.006409	-0.036621	-1.1424	0.22492	-0.018921	0.35706	-0.80246	0.30395	-0.1709	0.29511	0.012665	-1.4024	-0.005493	-0.036163	-0.19348	-0.005951	0.010834
17.057	-0.002594	0.30472	0.056	-0.006866	-0.001984	-0.019226	0.20233	0.006561	0.066528	0.049286	0.014343	-0.001068	-0.13428	-0.02594	0.068359	-0.008698	0.006409	-1.0773	0.14633	0.033417	0.24124	-0.6662	0.39475	-0.019989	0.41367	0.003357	-0.85953	-0.000916	0.10117	-0.061035	-0.001831	-0.015259
17.058	-0.00412	0.39703	0.017395	-0.024109	0.008698	-0.019073	0.26672	0.007782	0.061646	0.013733	-0.12833	-0.003204	-0.038452	0.019226	-0.1828	0.000916	0.018005	-1.0941	0.14725	-0.080566	0.28183	-0.31311	0.41809	-0.011292	0.33737	0.010071	-0.27847	-0.006256	-1.4063	0.016785	-0.006409	-0.013275
17.059	-0.007935	0.49759	-0.025635	-0.011902	0.007935	-0.012207	0.28275	0.007935	0.053406	0.039368	-0.080414	0.013275	-0.048218	0.008087	-0.21454	-0.006866	-0.035706	-1.1552	0.087433	-0.10651	0.054626	-0.007477	0.50247	0.20187	0.13168	0.008087	-0.22079	-0.004578	-1.2755	0.17258	-0.001984	-0.017395
17.06	-0.010529	0.62958	-0.020294	-0.010376	-0.031738	-0.001373	0.25742	0.008087	0.052338	0.071411	-0.04837	0.002289	-0.072937	-0.00061	-0.097656	0.003052	-0.10773	-1.1627	0.30792	-0.061951	-0.28427	0.22675	0.50644	0.36499	-0.072021	-0.000153	-0.40787	-0.006256	-1.0527	0.47546	-0.002441	-0.016785
17.061	-0.008545	0.77042	-0.00824	-0.026245	0.005646	-0.021362	0.27802	0.009613	0.055084	0.067444	-0.023041	0.001678	-0.055389	-0.05249	0.063019	0.007019	-0.13046	-1.1034	0.68649	0.1091	-0.077667	0.30365	0.40634	0.43976	-0.13046	0.001984	-0.33035	-0.001526	-0.32394	0.4567	-0.003052	-0.016785
17.062	-0.009613	0.90027	-0.010071	-0.036774	0.002594	-0.018005	0.30518	0.009766	0.073547	0.053253	-0.038757	0.001984	-0.044861	0.014038	0.13687	0.004425	-0.15869	-1.1679	-0.32883	0.25238	0.23804	0.25879	0.46692	0.48172	-0.34821	0.00885	-0.30273	-0.001678	0.22476	0.21454	-0.00351	-0.016022
17.063	-0.012054	1.0211	-0.007935	-0.036926	0.022278	-0.024872	0.30777	0.013733	0.075226	0.06897	-0.019989	0.00946	-0.051575	0.090179	0.1564	0.00885	-0.11398	-1.2625	-0.8989	0.15747	0.16693	0.16998	0.75897	0.41077	-0.4332	0.011444	-0.36041	0.000763	1.8651	0.14938	-0.003052	-0.012207
17.064	-0.01297	1.0631	-0.02243	0.000916	0.000916	-0.005188	0.32501	0.019684	0.059052	0.06424	0.033875	0.010223	-0.092621	0.11322	0.13443	0.001831	-0.03479	-1.3132	-1.3098	0.056915	-0.010529	0.088348	0.93079	0.29648	-0.37811	0.002594	0.19241	0.000763	1.0249	0.12405	-0.004425	-0.009155
